<?xml version="1.0" encoding="UTF-8" standalone="no"?>
<!-- Created with Inkscape (http://www.inkscape.org/) -->

<svg
   xmlns:dc="http://purl.org/dc/elements/1.1/"
   xmlns:cc="http://creativecommons.org/ns#"
   xmlns:rdf="http://www.w3.org/1999/02/22-rdf-syntax-ns#"
   xmlns:svg="http://www.w3.org/2000/svg"
   xmlns="http://www.w3.org/2000/svg"
   xmlns:sodipodi="http://sodipodi.sourceforge.net/DTD/sodipodi-0.dtd"
   xmlns:inkscape="http://www.inkscape.org/namespaces/inkscape"
   width="14.055625mm"
   height="14.055716mm"
   viewBox="0 0 14.055625 14.055716"
   version="1.1"
   id="svg8"
   inkscape:version="0.92.2 (5c3e80d, 2017-08-06)"
   sodipodi:docname="m_ico.svg"
   inkscape:export-filename="C:\Users\Owner\OneDrive\ドキュメント\VSProgram\stella_tracer\templates\m_logo.png"
   inkscape:export-xdpi="96"
   inkscape:export-ydpi="96">
  <defs
     id="defs2" />
  <sodipodi:namedview
     id="base"
     pagecolor="#ffffff"
     bordercolor="#666666"
     borderopacity="1.0"
     inkscape:pageopacity="0.0"
     inkscape:pageshadow="2"
     inkscape:zoom="3.959798"
     inkscape:cx="115.35102"
     inkscape:cy="42.886703"
     inkscape:document-units="mm"
     inkscape:current-layer="text3701"
     showgrid="false"
     inkscape:window-width="1920"
     inkscape:window-height="986"
     inkscape:window-x="-11"
     inkscape:window-y="-11"
     inkscape:window-maximized="1"
     fit-margin-top="0"
     fit-margin-left="0"
     fit-margin-right="0"
     fit-margin-bottom="0" />
  <metadata
     id="metadata5">
    <rdf:RDF>
      <cc:Work
         rdf:about="">
        <dc:format>image/svg+xml</dc:format>
        <dc:type
           rdf:resource="http://purl.org/dc/dcmitype/StillImage" />
        <dc:title></dc:title>
      </cc:Work>
    </rdf:RDF>
  </metadata>
  <g
     inkscape:label="レイヤー 1"
     inkscape:groupmode="layer"
     id="layer1"
     transform="translate(-21.18542,-76.973822)">
    <g
       aria-label="みちびき"
       style="font-style:normal;font-weight:normal;font-size:10.58333302px;line-height:-78054470713344;font-family:sans-serif;letter-spacing:-1.05833328px;word-spacing:0px;fill:#000000;fill-opacity:1;stroke:none;stroke-width:0.26458332"
       id="text3701">
      <path
         d="m 42.206334,81.627652 -0.645583,2.19075 h 2.836333 l 0.04233,-0.963083 h 0.719667 l -0.03175,0.963083 h 0.9525 v 0.709083 h -1.016 l -0.66675,1.989667 c -0.127,0.402167 -0.381,0.740833 -0.719667,0.98425 -0.34925,0.254 -0.751416,0.381 -1.174749,0.381 h -0.169334 l 0.01058,-0.73025 h 0.15875 c 0.550333,0 1.037166,-0.34925 1.206499,-0.867833 l 0.582084,-1.756834 h -2.942167 l -0.465666,1.55575 c -0.105834,0.359834 -0.328084,0.656167 -0.624417,0.878417 -0.254,0.201083 -0.560917,0.306917 -0.889,0.338667 h -0.518583 l -0.613834,-1.2065 v -0.8255 l 1.36525,-1.449917 h 1.195917 l 0.656167,-2.169583 -0.148167,-0.338667 h -1.322917 v -0.6985 h 1.788584 z m -2.021416,4.243917 0.402166,-1.344084 h -0.645583 l -0.973667,1.037167 v 0.359833 l 0.328084,0.645584 c 0.41275,-0.02117 0.772583,-0.296334 0.889,-0.6985 z"
         style="letter-spacing:-1.58749998px"
         id="path4978" />
      <path
         d="m 53.710418,83.395069 0.941916,0.9525 -0.328083,2.307166 c -0.0635,0.402167 -0.264584,0.772584 -0.5715,1.037167 -0.3175,0.264583 -0.709083,0.41275 -1.11125,0.41275 h -1.756833 v -0.66675 h 1.756833 c 0.508,0 0.941917,-0.381 1.016,-0.878417 l 0.28575,-1.93675 -0.53975,-0.529166 h -1.80975 l -1.703917,1.418166 -0.73025,1.016 h -0.740833 l 0.8255,-4.677833 h -1.248833 v -0.6985 h 1.375833 l 0.201083,-1.132417 h 0.687917 l -0.211667,1.132417 h 2.6035 v 0.6985 h -2.719916 l -0.60325,3.39725 0.275166,-0.381 1.756834,-1.471083 z"
         style="letter-spacing:-0.79374999px"
         id="path4980" />
      <path
         d="m 62.304083,84.940235 v -3.20675 l 0.6985,-0.4445 1.820333,2.995084 h -0.804333 l -0.98425,-1.629834 v 2.286 c 0,0.85725 -0.41275,1.661584 -1.11125,2.159 l -1.386416,0.994834 H 58.547 l -1.100667,-2.529417 v -2.19075 l 1.195917,-1.778 -1.418167,0.433917 v -0.709084 l 2.169584,-0.677333 v 1.100667 l -1.23825,1.852083 v 1.820333 l 0.867833,2.00025 h 1.217083 l 1.259417,-0.910166 c 0.508,-0.359834 0.804333,-0.941917 0.804333,-1.566334 z m 2.275417,-4.900083 0.529166,1.037167 H 64.4525 l -0.41275,-1.037167 z m -0.814917,0.211667 0.53975,1.058333 h -0.656167 l -0.41275,-1.058333 z"
         style="letter-spacing:-1.58749998px"
         id="path4982" />
      <path
         d="m 70.887167,86.019735 v -0.677333 h 1.090084 l 0.04233,-0.09525 -0.34925,-1.4605 h -2.942166 v -0.677333 h 2.783416 l -0.306917,-1.30175 h -3.524249 v -0.677334 h 3.365499 l -0.243416,-1.005416 h 0.677333 l 0.243417,1.005416 h 1.5875 v 0.677334 h -1.42875 l 0.306916,1.30175 h 0.867834 v 0.677333 h -0.709084 l 0.359834,1.524 -0.306917,0.709083 z m -2.328333,2.137834 c -0.338666,0 -0.677333,-0.116417 -0.9525,-0.328084 -0.275166,-0.22225 -0.465666,-0.518583 -0.53975,-0.85725 l -0.465666,-1.93675 h 0.719666 l 0.433917,1.799167 c 0.08467,0.381 0.423333,0.645583 0.804333,0.645583 h 1.513417 v 0.677334 z"
         style="letter-spacing:-1.58749998px"
         id="path4984" />
    </g>
    <g
       id="g4710"
       transform="translate(-26.262582,-32.561881)">
      <circle
         r="6.9453125"
         cy="116.56361"
         cx="54.475815"
         id="path3725"
         style="fill:#000000;stroke:#999999;stroke-width:0.16500001;stroke-miterlimit:4;stroke-dasharray:none" />
      <path
         transform="scale(0.26458333)"
         inkscape:connector-curvature="0"
         id="path3851"
         d="m 210.0383,434.28674 c -0.49085,0.24612 -0.66167,0.85324 -0.48614,1.35238 1.10857,4.98955 2.227,9.97731 3.39725,14.95272 0.16361,0.63282 0.95122,0.9321 1.5074,0.60634 0.43782,-0.24132 1.04427,-0.30895 1.24872,-0.83404 0.26202,-0.60125 -0.12793,-1.21714 -0.24642,-1.80531 -1.34046,-4.58289 -2.66799,-9.17015 -4.04831,-13.741 -0.21845,-0.52941 -0.85397,-0.77579 -1.3725,-0.53109 z m 4.94655,16.66757 c -0.1942,0.0368 -0.12925,0.0169 0,0 z"
         style="fill:#ffffff;stroke:#000000;stroke-width:0.04464286" />
      <path
         transform="scale(0.26458333)"
         inkscape:connector-curvature="0"
         id="path3853"
         d="m 211.35674,434.01879 c -0.59325,0.12259 -0.94879,0.8009 -0.73251,1.36222 1.39586,4.87499 2.83474,9.73796 4.25956,14.60432 0.20725,0.54518 0.8621,0.77343 1.39604,0.60601 0.49102,-0.0669 1.09301,-0.0976 1.34471,-0.60182 0.32442,-0.57441 -0.099,-1.18018 -0.25716,-1.73858 -1.63184,-4.55265 -3.22748,-9.11885 -4.89502,-13.65835 -0.20078,-0.42024 -0.6569,-0.65359 -1.11562,-0.5738 z"
         style="fill:#ffffff;stroke:#ffffff;stroke-width:0.04464286" />
      <path
         transform="scale(0.26458333)"
         inkscape:connector-curvature="0"
         id="path3855"
         d="m 210.07348,432.95869 c -0.32263,0.0271 -0.6253,0.22136 -0.78227,0.5048 -0.12792,0.2218 -0.15895,0.49183 -0.10081,0.73982 0.0405,0.20498 0.0929,0.4158 0.22417,0.5836 0.20987,0.29538 0.59071,0.45516 0.94867,0.40108 0.32361,-0.0425 0.61701,-0.2558 0.76064,-0.54839 0.11801,-0.23082 0.13453,-0.50599 0.061,-0.75321 -0.0502,-0.18942 -0.10538,-0.38432 -0.23007,-0.53996 -0.20099,-0.26699 -0.5428,-0.41767 -0.87546,-0.38804 l -0.006,2.9e-4 z"
         style="fill:#ffffff;stroke:#000000;stroke-width:0.00558036" />
      <path
         transform="scale(0.26458333)"
         inkscape:connector-curvature="0"
         id="path3857"
         d="m 211.07469,432.77124 c -0.32849,0.0268 -0.63675,0.22706 -0.79185,0.51828 -0.13038,0.23451 -0.15489,0.52063 -0.0788,0.77682 0.0496,0.1815 0.0957,0.36949 0.20826,0.52423 0.17341,0.2507 0.46459,0.4155 0.76948,0.43071 0.34549,0.0234 0.69571,-0.14786 0.88964,-0.43475 0.17668,-0.25188 0.22508,-0.5861 0.13085,-0.87862 -0.0681,-0.19508 -0.12632,-0.40114 -0.2603,-0.56341 -0.20367,-0.25985 -0.53879,-0.40257 -0.86729,-0.37326 z"
         style="fill:#ffffff;stroke:#ffffff;stroke-width:0.00558036" />
      <path
         transform="scale(0.26458333)"
         inkscape:connector-curvature="0"
         id="path3847"
         d="m 200.4191,444.62048 c -0.45278,0.12573 -0.77484,0.59142 -0.72173,1.06001 0.0295,0.36935 0.28799,0.67441 0.60459,0.84659 3.00958,1.89975 6.02998,3.7824 9.04441,5.67447 0.59028,0.36697 1.17736,0.74126 1.76901,1.10458 0.45351,0.223 1.02823,0.0458 1.31662,-0.35871 0.23916,-0.32008 0.58585,-0.60683 0.60707,-1.0362 0.0417,-0.43398 -0.23651,-0.84764 -0.6273,-1.02326 -3.67949,-2.04247 -7.36687,-4.07082 -11.06074,-6.08717 -0.27891,-0.17531 -0.60541,-0.27158 -0.93193,-0.18031 z m 10.50184,8.56619 c -0.0714,-0.0555 -0.0637,-0.0512 0,0 z"
         style="fill:#ffffff;stroke:#000000;stroke-width:0.02232143" />
      <path
         inkscape:connector-curvature="0"
         id="path3849"
         d="m 56.476036,119.28785 -2.012846,-8.8805 3.049872,8.55774 v 0 0"
         style="fill:none;stroke:#ffffff;stroke-width:0.27493522px;stroke-linecap:butt;stroke-linejoin:miter;stroke-opacity:1" />
      <path
         transform="scale(0.26458333)"
         inkscape:connector-curvature="0"
         id="path3845"
         d="m 198.92265,444.79007 c -0.4669,0.053 -0.85825,0.46224 -0.87942,0.93337 -0.03,0.39724 0.20893,0.76777 0.54255,0.96845 3.82713,2.7618 7.66433,5.50969 11.50584,8.25142 0.39117,0.26858 0.9619,0.21125 1.28499,-0.13866 0.24822,-0.27184 0.3166,-0.64928 0.49854,-0.9624 0.22404,-0.36752 0.20992,-0.87231 -0.0813,-1.19955 -0.24651,-0.26764 -0.59531,-0.41001 -0.89017,-0.61714 -3.78151,-2.36642 -7.55456,-4.74646 -11.34551,-7.09773 -0.19329,-0.1106 -0.41379,-0.15803 -0.63555,-0.13776 z"
         style="fill:#ffffff;stroke:#ffffff;stroke-width:0.02232143" />
      <circle
         style="fill:none;stroke-width:0.26458332"
         r="1.4365736"
         cy="112.21652"
         cx="49.812359"
         id="path3711" />
      <circle
         r="0.96856397"
         cy="121.38423"
         cx="50.965576"
         id="path3731"
         style="fill:none;stroke:#ffffff;stroke-width:0.30000001;stroke-miterlimit:4;stroke-dasharray:none" />
      <circle
         r="1.7481399"
         cy="120.74498"
         cx="57.405132"
         id="path3733"
         style="fill:none;stroke:#ffffff;stroke-width:0.465;stroke-miterlimit:4;stroke-dasharray:none" />
      <circle
         r="0.66145831"
         cy="115.09895"
         cx="48.380951"
         id="path3735"
         style="fill:none;stroke:#ffffff;stroke-width:0.26458332" />
      <circle
         r="0.4252232"
         cy="110.04343"
         cx="54.385666"
         id="path3737"
         style="fill:none;stroke:#ffffff;stroke-width:0.16500001;stroke-miterlimit:4;stroke-dasharray:none" />
      <circle
         r="0.70870537"
         cy="113.1441"
         cx="59.613934"
         id="path3739"
         style="fill:none;stroke:#ffffff;stroke-width:0.30000001;stroke-miterlimit:4;stroke-dasharray:none" />
      <path
         inkscape:connection-end="#path3735"
         inkscape:connection-start="#path3731"
         inkscape:connector-curvature="3"
         inkscape:connector-type="polyline"
         id="path3811"
         d="M 50.597218,120.48846 48.632512,115.7107"
         style="fill:none;fill-rule:evenodd;stroke:#ffffff;stroke-width:0.26458332px;stroke-linecap:butt;stroke-linejoin:miter;stroke-opacity:1" />
      <path
         inkscape:connection-end="#path3737"
         inkscape:connection-start="#path3739"
         inkscape:connector-curvature="3"
         inkscape:connector-type="polyline"
         id="path3829"
         d="m 59.004376,112.78259 -4.252975,-2.52226"
         style="fill:none;fill-rule:evenodd;stroke:#ffffff;stroke-width:0.26458332px;stroke-linecap:butt;stroke-linejoin:miter;stroke-opacity:1" />
      <path
         sodipodi:nodetypes="cccc"
         inkscape:connector-curvature="0"
         id="path3835"
         d="m 48.941368,115.4503 6.767623,4.85113 v 0 l 0.125283,0.14199"
         style="fill:#ffffff;stroke:#ffffff;stroke-width:0.26458332px;stroke-linecap:butt;stroke-linejoin:miter;stroke-opacity:1" />
      <path
         inkscape:connector-curvature="0"
         id="path3837"
         d="m 48.941368,115.4503 7.335572,4.03262"
         style="fill:#ffffff;stroke:#ffffff;stroke-width:0.26458332px;stroke-linecap:butt;stroke-linejoin:miter;stroke-opacity:1" />
      <path
         transform="scale(0.26458333)"
         inkscape:connector-curvature="0"
         id="path3859"
         d="m 192.34836,440.30533 c -0.58101,0.23491 -0.80512,1.02219 -0.42162,1.52078 0.43452,0.46327 1.00969,0.77359 1.50569,1.16808 1.42049,1.01517 2.822,2.06037 4.27314,3.03059 0.43604,0.23627 0.98237,0.0947 1.31315,-0.25296 0.47847,-0.0571 1.00067,-0.32864 1.075,-0.84996 0.14082,-0.53925 -0.27512,-1.03742 -0.75853,-1.22455 -2.06492,-1.12591 -4.11254,-2.28477 -6.19503,-3.37776 -0.25189,-0.10731 -0.53498,-0.0979 -0.7918,-0.0142 z"
         style="fill:#ffffff;stroke:#ffffff;stroke-width:0.04464286" />
      <path
         transform="scale(0.26458333)"
         inkscape:connector-curvature="0"
         id="path3861"
         d="m 208.05105,425.44537 c -0.49992,0.23899 -0.68238,0.85181 -0.50613,1.3563 0.46214,2.1286 0.9492,4.25297 1.43065,6.37649 0.11837,0.54319 0.70015,0.84965 1.22496,0.76845 0.75206,0.14462 1.67144,-0.47702 1.56904,-1.29447 -0.38977,-1.28687 -0.88221,-2.54323 -1.32056,-3.81511 -0.37354,-0.99771 -0.6904,-2.02051 -1.11438,-2.99726 -0.27243,-0.43405 -0.81325,-0.59921 -1.28358,-0.3944 z"
         style="fill:#ffffff;stroke:#ffffff;stroke-width:0.04464286" />
      <path
         inkscape:connector-curvature="0"
         id="path4670"
         d="m 50.365326,120.59142 v 0 0 l -1.72883,-4.88238 2.236737,4.61071"
         style="fill:none;stroke:#ffffff;stroke-width:0.26458332px;stroke-linecap:butt;stroke-linejoin:miter;stroke-opacity:1" />
      <path
         transform="scale(0.26458333)"
         inkscape:connector-curvature="0"
         id="path4672"
         d="m 190.21048,453.1527 c -0.36489,0.0374 -0.69692,0.29114 -0.82491,0.63543 -0.0963,0.24151 -0.083,0.51591 0.0107,0.75609 0.10282,0.29206 0.19908,0.58676 0.31107,0.8754 0.14539,0.3415 0.49115,0.58672 0.86267,0.60506 0.46215,0.03 0.92229,-0.28408 1.06017,-0.72669 0.0814,-0.24771 0.0527,-0.52199 -0.0571,-0.75642 -0.12225,-0.28651 -0.23747,-0.57641 -0.36932,-0.8586 -0.17581,-0.3429 -0.56288,-0.56253 -0.94761,-0.53307 -0.0152,9.3e-4 -0.0305,0.002 -0.0457,0.003 z"
         style="fill:#ffffff;stroke:#ffffff;stroke-width:0.0089482;stroke-miterlimit:4;stroke-dasharray:none" />
      <path
         transform="scale(0.26458333)"
         inkscape:connector-curvature="0"
         id="path4674"
         d="m 191.35042,453.17593 c -0.35467,0.0271 -0.68438,0.25731 -0.82876,0.58289 -0.12338,0.26486 -0.11528,0.57949 0.003,0.84467 0.0742,0.17117 0.13527,0.34902 0.22654,0.51207 0.18101,0.30608 0.5308,0.50384 0.8873,0.49232 0.37605,-0.004 0.73884,-0.2367 0.89452,-0.57981 0.13927,-0.28659 0.12067,-0.6324 -0.0175,-0.91589 -0.0972,-0.19663 -0.17635,-0.40648 -0.31535,-0.57868 -0.20494,-0.248 -0.5293,-0.38407 -0.84991,-0.35757 z"
         style="fill:#ffffff;stroke:#ffffff;stroke-width:0.0089482;stroke-miterlimit:4;stroke-dasharray:none" />
      <path
         sodipodi:nodetypes="cc"
         inkscape:connector-curvature="0"
         id="path4678"
         d="m 54.701259,110.21073 4.460167,2.45782"
         style="fill:none;stroke:#ffffff;stroke-width:0.26458332px;stroke-linecap:butt;stroke-linejoin:miter;stroke-opacity:1" />
      <path
         sodipodi:nodetypes="cc"
         inkscape:connector-curvature="0"
         id="path4680"
         d="m 54.701259,110.21073 4.31252,2.635"
         style="fill:none;stroke:#ffffff;stroke-width:0.26458332px;stroke-linecap:butt;stroke-linejoin:miter;stroke-opacity:1" />
      <path
         transform="scale(0.26458333)"
         inkscape:connector-curvature="0"
         id="path4682"
         d="m 190.36965,451.39124 c -0.45273,0.08 -0.81632,0.50117 -0.81538,0.96277 -0.009,0.33505 0.17404,0.63102 0.28364,0.93729 0.12601,0.29854 0.2315,0.6371 0.51836,0.82314 0.37251,0.27128 0.92114,0.22776 1.25953,-0.0804 0.33783,-0.28435 0.44471,-0.78932 0.2709,-1.19236 -0.15019,-0.3418 -0.3099,-0.68126 -0.49335,-1.00641 -0.21512,-0.33765 -0.63026,-0.51588 -1.0237,-0.44399 z"
         style="fill:#ffffff;stroke:#ffffff;stroke-width:0.0178964;stroke-miterlimit:4;stroke-dasharray:none" />
    </g>
  </g>
</svg>
